<svg xmlns="http://www.w3.org/2000/svg" version="1.1" xmlns:xlink="http://www.w3.org/1999/xlink" width="1000" height="1000"><g clip-path="url(#SvgjsClipPath1140)"><rect width="1000" height="1000" fill="#ffffff"></rect><g transform="matrix(25,0,0,25,0,0)"><svg xmlns="http://www.w3.org/2000/svg" version="1.1" xmlns:xlink="http://www.w3.org/1999/xlink" width="40" height="40"><svg width="40" height="40" viewBox="0 0 40 40" fill="none" xmlns="http://www.w3.org/2000/svg">
<rect width="40" height="40" rx="5" fill="url(#paint0_linear_1_5)"></rect>
<path d="M33 21.1667C33 21.8111 32.4709 22.3334 31.8182 22.3334C31.1655 22.3334 30.6364 21.8111 30.6364 21.1667V16.9831L22.6083 24.9083C22.1467 25.3639 21.3986 25.3639 20.9371 24.9083L15.8636 19.8998L9.01732 26.6583C8.55579 27.1139 7.80768 27.1139 7.34615 26.6583C6.88462 26.2027 6.88462 25.4642 7.34615 25.0085L15.028 17.4252L15.118 17.3454C15.5822 16.9717 16.2665 16.998 16.6992 17.4252L21.7727 22.4337L28.9652 15.3333H24.7272C24.0745 15.3333 23.5454 14.811 23.5454 14.1667C23.5454 13.5223 24.0745 13 24.7272 13H31.8182C32.4709 13 33 13.5223 33 14.1667V21.1667Z" fill="white"></path>
<defs>
<linearGradient id="paint0_linear_1_5" x1="0" y1="0" x2="40" y2="40" gradientUnits="userSpaceOnUse">
<stop stop-color="#2B7FFF"></stop>
<stop offset="1" stop-color="#9810FA"></stop>
</linearGradient>
<clipPath id="SvgjsClipPath1140"><rect width="1000" height="1000" x="0" y="0" rx="400" ry="400"></rect></clipPath></defs>
</svg></svg></g></g></svg>